STARTFONT 2.1
COMMENT Copyright (C) 1990-1991 EWT Consulting
COMMENT Portions Copyright (C) 1994-1995 Cronyx Ltd.
COMMENT Changes Copyright (C) 1996-1997 by Andrey A. Chernov, Moscow, Russia.
COMMENT Modified by Serge Vakulenko, <vak@cronyx.ru>
COMMENT Changes 1999 by Serge Winitzki.
COMMENT This software may be used, modified, copied, distributed, and sold,
COMMENT in both source and binary form provided that the copyright
COMMENT and these terms are retained. Under no circumstances is the author
COMMENT responsible for the proper functioning of this software, nor does
COMMENT the author assume any responsibility for damages incurred with its use.
FONT -Cronyx-Helvetica-Medium-R-Normal--34-240-100-100-P-130-KOI8-C
SIZE 24 96 96
FONTBOUNDINGBOX 31 33 0 -7
STARTPROPERTIES 23
DEFAULT_CHAR 32
FONT_ASCENT 29
FONT_DESCENT 8
SPACING "P"
FONTNAME_REGISTRY ""
FOUNDRY "Cronyx"
FAMILY_NAME "Helvetica"
WEIGHT_NAME "Medium"
SLANT "R"
SETWIDTH_NAME "Normal"
ADD_STYLE_NAME ""
AVERAGE_WIDTH 130
CHARSET_REGISTRY "KOI8"
CHARSET_ENCODING "C"
PIXEL_SIZE 34
POINT_SIZE 240
RESOLUTION_X 100
RESOLUTION_Y 100
COPYRIGHT "Copyright (C) 1990, 1991 EWT Consulting, Portions Copyright (C) 1994 Cronyx Ltd., Portions Copyright (C) 1996-1997 by Andrey A. Chernov, Moscow, Russia."
_XMBDFED_INFO "Edited with xmbdfed 3.8."
_XFREE86_GLYPH_RANGES "3_10 26_27 30_255"
X_HEIGHT 16
CAP_HEIGHT 23
ENDPROPERTIES
CHARS 236
STARTCHAR multi
ENCODING 3
SWIDTH 500 0
DWIDTH 16 0
BBX 15 14 1 3
BITMAP
E00E
F01E
783C
3C78
1EF0
0FE0
07C0
07C0
0FE0
1EF0
3C78
783C
F01E
E00E
ENDCHAR
STARTCHAR divide
ENCODING 4
SWIDTH 593 0
DWIDTH 19 0
BBX 17 19 1 2
BITMAP
01C000
03E000
03E000
03E000
01C000
000000
000000
000000
FFFF80
FFFF80
FFFF80
000000
000000
000000
01C000
03E000
03E000
03E000
01C000
ENDCHAR
STARTCHAR promille
ENCODING 5
SWIDTH 1000 0
DWIDTH 32 0
BBX 28 23 2 0
BITMAP
1E038000
7F830000
61870000
C0C60000
C0CE0000
C0CC0000
C0DC0000
61980000
7FB80000
1E300000
00700000
00600000
00E00000
00CF0780
01FFDFE0
01B0D860
03E07030
03607030
07607030
06607030
0E30D860
0C3FDFE0
1C0F0780
ENDCHAR
STARTCHAR approx
ENCODING 6
SWIDTH 1093 0
DWIDTH 35 0
BBX 16 11 2 4
BITMAP
3E07
7F07
F3CF
E0FE
E07C
0000
3E07
7F07
F3CF
E0FE
E07C
ENDCHAR
STARTCHAR degree
ENCODING 7
SWIDTH 562 0
DWIDTH 18 0
BBX 14 23 2 -7
BITMAP
E01C
E01C
E01C
E01C
E01C
E01C
E01C
E01C
E01C
E01C
E01C
E01C
F03C
F87C
FFDC
EF9C
E000
E000
E000
E000
E000
E000
E000
ENDCHAR
STARTCHAR plusminus
ENCODING 8
SWIDTH 562 0
DWIDTH 18 0
BBX 17 21 1 0
BITMAP
01C000
01C000
01C000
01C000
01C000
01C000
01C000
01C000
FFFF80
FFFF80
FFFF80
01C000
01C000
01C000
01C000
01C000
01C000
01C000
FFFF80
FFFF80
FFFF80
ENDCHAR
STARTCHAR pilcrow
ENCODING 9
SWIDTH 656 0
DWIDTH 21 0
BBX 17 23 3 0
BITMAP
0FFF80
3FFF80
7FFF80
7FF380
FFF380
FFF380
FFF380
FFF380
FFF380
FFF380
7FF380
7FF380
3FF380
0FF380
007380
007380
007380
007380
007380
007380
007380
007380
007380
ENDCHAR
STARTCHAR ddagger
ENCODING 10
SWIDTH 593 0
DWIDTH 19 0
BBX 17 20 1 0
BITMAP
01C000
01C000
01C000
01C000
FFFF80
FFFF80
FFFF80
01C000
01C000
01C000
01C000
01C000
01C000
FFFF80
FFFF80
FFFF80
01C000
01C000
01C000
01C000
ENDCHAR
STARTCHAR lessequal
ENCODING 26
SWIDTH 593 0
DWIDTH 19 0
BBX 16 19 1 0
BITMAP
0003
000F
003F
00FC
03F0
0FC0
3F00
FC00
FC00
3F00
0FC0
03F0
00FC
003F
000F
0003
FFFF
FFFF
FFFF
ENDCHAR
STARTCHAR greaterequal
ENCODING 27
SWIDTH 593 0
DWIDTH 19 0
BBX 16 19 2 0
BITMAP
C000
F000
FC00
3F00
0FC0
03F0
00FC
003F
003F
00FC
03F0
0FC0
3F00
FC00
F000
C000
FFFF
FFFF
FFFF
ENDCHAR
STARTCHAR currency
ENCODING 30
SWIDTH 468 0
DWIDTH 15 0
BBX 15 16 0 0
BITMAP
E00E
F01E
783C
3C78
1FF0
0FE0
1C70
3838
3838
3838
1C70
1FF0
3FF8
783C
F01E
E00E
ENDCHAR
STARTCHAR twosuperior
ENCODING 31
SWIDTH 281 0
DWIDTH 9 0
BBX 8 11 1 12
BITMAP
3C
7E
C3
03
0E
3C
70
60
C0
FF
FF
ENDCHAR
STARTCHAR space
ENCODING 32
SWIDTH 281 0
DWIDTH 9 0
BBX 0 0 0 0
BITMAP
ENDCHAR
STARTCHAR exclam
ENCODING 33
SWIDTH 281 0
DWIDTH 9 0
BBX 3 23 3 0
BITMAP
E0
E0
E0
E0
E0
E0
E0
E0
E0
E0
E0
E0
E0
E0
40
40
40
00
00
00
E0
E0
E0
ENDCHAR
STARTCHAR quotedbl
ENCODING 34
SWIDTH 343 0
DWIDTH 11 0
BBX 9 8 1 15
BITMAP
E380
E380
E380
E380
E380
4100
4100
4100
ENDCHAR
STARTCHAR numbersign
ENCODING 35
SWIDTH 562 0
DWIDTH 18 0
BBX 16 23 1 0
BITMAP
030C
030C
030C
030C
071C
0618
7FFF
7FFF
0618
0E38
0C30
0C30
0C30
1C70
1860
FFFE
FFFE
1860
38E0
30C0
30C0
30C0
30C0
ENDCHAR
STARTCHAR dollar
ENCODING 36
SWIDTH 562 0
DWIDTH 18 0
BBX 16 28 1 -3
BITMAP
0180
0180
07E0
1FF8
3DBC
399C
718E
718E
7180
3980
3D80
1F80
0FE0
03F8
01FC
019E
018E
0187
E187
E187
E187
718E
799E
3FFC
0FF0
0180
0180
0180
ENDCHAR
STARTCHAR percent
ENCODING 37
SWIDTH 875 0
DWIDTH 28 0
BBX 24 23 2 0
BITMAP
1E00E0
7F80C0
6181C0
C0C180
C0C380
C0C300
C0C700
618600
7F8E00
1E0C00
001C00
001800
003800
003078
0071FE
006186
00E303
00C303
01C303
018303
038186
0301FE
070078
ENDCHAR
STARTCHAR ampersand
ENCODING 38
SWIDTH 687 0
DWIDTH 22 0
BBX 20 23 2 0
BITMAP
030000
0FC000
1FE000
1CE000
387000
387000
387000
1CE000
1FE000
0FC000
1F8000
3FC000
79E380
70F380
F07F00
E03F00
E01E00
E00E00
F01F00
783F80
7FFBC0
3FF1E0
0FC0F0
ENDCHAR
STARTCHAR quotesingle
ENCODING 39
SWIDTH 218 0
DWIDTH 7 0
BBX 3 8 2 15
BITMAP
E0
E0
E0
E0
E0
40
40
40
ENDCHAR
STARTCHAR parenleft
ENCODING 40
SWIDTH 343 0
DWIDTH 11 0
BBX 7 30 3 -7
BITMAP
06
0E
1C
38
38
70
70
70
E0
E0
E0
E0
E0
E0
E0
E0
E0
E0
E0
E0
E0
E0
70
70
70
38
38
1C
0E
06
ENDCHAR
STARTCHAR parenright
ENCODING 41
SWIDTH 343 0
DWIDTH 11 0
BBX 7 30 1 -7
BITMAP
C0
E0
70
38
38
1C
1C
1C
0E
0E
0E
0E
0E
0E
0E
0E
0E
0E
0E
0E
0E
0E
1C
1C
1C
38
38
70
E0
C0
ENDCHAR
STARTCHAR asterisk
ENCODING 42
SWIDTH 375 0
DWIDTH 12 0
BBX 10 9 1 14
BITMAP
0C00
0C00
6D80
FFC0
3F00
1E00
3F00
7380
2100
ENDCHAR
STARTCHAR plus
ENCODING 43
SWIDTH 593 0
DWIDTH 19 0
BBX 17 19 1 2
BITMAP
01C000
01C000
01C000
01C000
01C000
01C000
01C000
01C000
FFFF80
FFFF80
FFFF80
01C000
01C000
01C000
01C000
01C000
01C000
01C000
01C000
ENDCHAR
STARTCHAR comma
ENCODING 44
SWIDTH 281 0
DWIDTH 9 0
BBX 3 6 3 -3
BITMAP
E0
E0
E0
20
40
80
ENDCHAR
STARTCHAR hyphen
ENCODING 45
SWIDTH 312 0
DWIDTH 10 0
BBX 8 2 1 6
BITMAP
FF
FF
ENDCHAR
STARTCHAR period
ENCODING 46
SWIDTH 281 0
DWIDTH 9 0
BBX 3 3 3 0
BITMAP
E0
E0
E0
ENDCHAR
STARTCHAR slash
ENCODING 47
SWIDTH 281 0
DWIDTH 9 0
BBX 9 23 0 0
BITMAP
0380
0380
0380
0700
0700
0700
0E00
0E00
0E00
1C00
1C00
1C00
1C00
3800
3800
3800
7000
7000
7000
7000
E000
E000
E000
ENDCHAR
STARTCHAR zero
ENCODING 48
SWIDTH 562 0
DWIDTH 18 0
BBX 14 23 2 0
BITMAP
0780
1FE0
3FF0
7878
7038
F03C
E01C
E01C
E01C
E01C
E01C
E01C
E01C
E01C
E01C
E01C
E01C
F03C
7038
7878
3FF0
1FE0
0780
ENDCHAR
STARTCHAR one
ENCODING 49
SWIDTH 500 0
DWIDTH 16 0
BBX 6 23 4 0
BITMAP
0C
0C
1C
3C
FC
FC
FC
1C
1C
1C
1C
1C
1C
1C
1C
1C
1C
1C
1C
1C
1C
1C
1C
ENDCHAR
STARTCHAR two
ENCODING 50
SWIDTH 562 0
DWIDTH 18 0
BBX 16 23 1 0
BITMAP
03C0
0FF0
1FF8
3C3C
381C
700E
700E
000E
000E
001C
003C
00F8
03F0
07C0
0F00
1E00
3C00
3800
7000
7000
FFFF
FFFF
FFFF
ENDCHAR
STARTCHAR three
ENCODING 51
SWIDTH 562 0
DWIDTH 18 0
BBX 16 23 1 0
BITMAP
03C0
0FF0
1FF8
3C3C
381C
700E
700E
000E
001C
01FC
01F8
01FC
001E
000E
0007
0007
E007
E007
700E
781E
3FFC
1FF8
07E0
ENDCHAR
STARTCHAR four
ENCODING 52
SWIDTH 562 0
DWIDTH 18 0
BBX 16 23 1 0
BITMAP
0078
00F8
00F8
01F8
03F8
03B8
07B8
0F38
0E38
1E38
3C38
3838
7838
7038
F038
FFFF
FFFF
FFFF
0038
0038
0038
0038
0038
ENDCHAR
STARTCHAR five
ENCODING 53
SWIDTH 562 0
DWIDTH 18 0
BBX 16 23 1 0
BITMAP
1FFE
1FFE
1FFE
1C00
3800
3800
3800
3BF0
7FFC
7FFE
781E
700F
0007
0007
0007
0007
E007
E007
700E
781E
3FFC
1FF8
07E0
ENDCHAR
STARTCHAR six
ENCODING 54
SWIDTH 562 0
DWIDTH 18 0
BBX 15 23 2 0
BITMAP
07C0
1FF0
3FF8
7C78
701C
F01C
E000
E000
E3C0
EFF0
FFF8
FC7C
F01C
F01E
E00E
E00E
E00E
F01E
701C
7C7C
3FF8
1FF0
07C0
ENDCHAR
STARTCHAR seven
ENCODING 55
SWIDTH 562 0
DWIDTH 18 0
BBX 16 23 1 0
BITMAP
FFFF
FFFF
FFFF
000F
001E
003C
0038
0078
0070
00F0
00E0
01E0
01C0
01C0
03C0
0380
0380
0780
0700
0700
0700
0700
0700
ENDCHAR
STARTCHAR eight
ENCODING 56
SWIDTH 562 0
DWIDTH 18 0
BBX 16 23 1 0
BITMAP
03C0
0FF0
1FF8
3C3C
381C
700E
700E
700E
381C
3FFC
1FF8
3FFC
781E
700E
E007
E007
E007
E007
700E
781E
3FFC
1FF8
07E0
ENDCHAR
STARTCHAR nine
ENCODING 57
SWIDTH 562 0
DWIDTH 18 0
BBX 15 23 1 0
BITMAP
07C0
1FF0
3FF8
7C7C
701C
F01E
E00E
E00E
E00E
F01E
701E
7C7E
3FFE
1FEE
078E
000E
000E
701E
701C
3C7C
3FF8
1FF0
07C0
ENDCHAR
STARTCHAR colon
ENCODING 58
SWIDTH 281 0
DWIDTH 9 0
BBX 3 16 3 0
BITMAP
E0
E0
E0
00
00
00
00
00
00
00
00
00
00
E0
E0
E0
ENDCHAR
STARTCHAR semicolon
ENCODING 59
SWIDTH 281 0
DWIDTH 9 0
BBX 3 19 3 -3
BITMAP
E0
E0
E0
00
00
00
00
00
00
00
00
00
00
E0
E0
E0
20
40
80
ENDCHAR
STARTCHAR less
ENCODING 60
SWIDTH 593 0
DWIDTH 19 0
BBX 16 16 1 3
BITMAP
0003
000F
003F
00FC
03F0
0FC0
3F00
FC00
FC00
3F00
0FC0
03F0
00FC
003F
000F
0003
ENDCHAR
STARTCHAR equal
ENCODING 61
SWIDTH 593 0
DWIDTH 19 0
BBX 17 9 1 7
BITMAP
FFFF80
FFFF80
FFFF80
000000
000000
000000
FFFF80
FFFF80
FFFF80
ENDCHAR
STARTCHAR greater
ENCODING 62
SWIDTH 593 0
DWIDTH 19 0
BBX 16 16 2 3
BITMAP
C000
F000
FC00
3F00
0FC0
03F0
00FC
003F
003F
00FC
03F0
0FC0
3F00
FC00
F000
C000
ENDCHAR
STARTCHAR question
ENCODING 63
SWIDTH 531 0
DWIDTH 17 0
BBX 15 23 1 0
BITMAP
07C0
1FF0
3FF8
783C
701C
E00E
E00E
000E
000E
001C
003C
0078
00F0
01E0
01C0
0380
0380
0000
0000
0000
0380
0380
0380
ENDCHAR
STARTCHAR at
ENCODING 64
SWIDTH 937 0
DWIDTH 30 0
BBX 28 26 1 -3
BITMAP
001FC000
00FFF800
03E03E00
07000700
0E000380
1C0001C0
380780C0
301FD860
60387860
60603030
60603030
C0C03030
C0C06030
C1806030
C1806060
C180C060
6181C0C0
60C3E1C0
607F7F80
303E3E00
38000000
1C000000
0F000000
07C03800
01FFF000
003FC000
ENDCHAR
STARTCHAR A
ENCODING 65
SWIDTH 687 0
DWIDTH 22 0
BBX 21 23 1 0
BITMAP
00F800
00F800
01FC00
01FC00
01DC00
03DE00
038E00
038E00
078F00
070700
0F0780
0E0380
0E0380
1E03C0
1C01C0
1FFFC0
3FFFE0
3FFFE0
7800F0
700070
700070
F00078
E00038
ENDCHAR
STARTCHAR B
ENCODING 66
SWIDTH 656 0
DWIDTH 21 0
BBX 17 23 3 0
BITMAP
FFF000
FFFC00
FFFE00
E00E00
E00700
E00700
E00700
E00700
E00E00
FFFE00
FFFC00
FFFE00
E00F00
E00700
E00380
E00380
E00380
E00380
E00780
E00F00
FFFF00
FFFE00
FFF800
ENDCHAR
STARTCHAR C
ENCODING 67
SWIDTH 718 0
DWIDTH 23 0
BBX 21 23 2 0
BITMAP
00FC00
07FF80
0FFFC0
1F03E0
3C00F0
780078
700038
700038
E00000
E00000
E00000
E00000
E00000
E00000
E00000
700038
700038
780078
3C00F0
1F03E0
0FFFC0
07FF80
00FC00
ENDCHAR
STARTCHAR D
ENCODING 68
SWIDTH 718 0
DWIDTH 23 0
BBX 19 23 3 0
BITMAP
FFE000
FFFC00
FFFE00
E01F00
E00780
E003C0
E001C0
E001C0
E000E0
E000E0
E000E0
E000E0
E000E0
E000E0
E000E0
E001C0
E001C0
E003C0
E00780
E01F00
FFFE00
FFFC00
FFE000
ENDCHAR
STARTCHAR E
ENCODING 69
SWIDTH 656 0
DWIDTH 21 0
BBX 17 23 3 0
BITMAP
FFFF80
FFFF80
FFFF80
E00000
E00000
E00000
E00000
E00000
E00000
FFFE00
FFFE00
FFFE00
E00000
E00000
E00000
E00000
E00000
E00000
E00000
E00000
FFFF80
FFFF80
FFFF80
ENDCHAR
STARTCHAR F
ENCODING 70
SWIDTH 625 0
DWIDTH 20 0
BBX 17 23 3 0
BITMAP
FFFF80
FFFF80
FFFF80
E00000
E00000
E00000
E00000
E00000
E00000
FFFC00
FFFC00
FFFC00
E00000
E00000
E00000
E00000
E00000
E00000
E00000
E00000
E00000
E00000
E00000
ENDCHAR
STARTCHAR G
ENCODING 71
SWIDTH 781 0
DWIDTH 25 0
BBX 21 23 2 0
BITMAP
00FC00
07FF80
0FFFC0
1F03E0
3C00F0
780078
700038
700038
E00000
E00000
E00000
E00FF8
E00FF8
E00FF8
E00038
700038
700078
780078
3C00F8
1F03F8
0FFFB8
07FF38
00FC38
ENDCHAR
STARTCHAR H
ENCODING 72
SWIDTH 718 0
DWIDTH 23 0
BBX 18 23 3 0
BITMAP
E001C0
E001C0
E001C0
E001C0
E001C0
E001C0
E001C0
E001C0
E001C0
FFFFC0
FFFFC0
FFFFC0
E001C0
E001C0
E001C0
E001C0
E001C0
E001C0
E001C0
E001C0
E001C0
E001C0
E001C0
ENDCHAR
STARTCHAR I
ENCODING 73
SWIDTH 250 0
DWIDTH 8 0
BBX 3 23 3 0
BITMAP
E0
E0
E0
E0
E0
E0
E0
E0
E0
E0
E0
E0
E0
E0
E0
E0
E0
E0
E0
E0
E0
E0
E0
ENDCHAR
STARTCHAR J
ENCODING 74
SWIDTH 500 0
DWIDTH 16 0
BBX 13 23 1 0
BITMAP
0038
0038
0038
0038
0038
0038
0038
0038
0038
0038
0038
0038
0038
0038
E038
E038
E038
E038
F078
78F0
7FF0
3FE0
0F80
ENDCHAR
STARTCHAR K
ENCODING 75
SWIDTH 656 0
DWIDTH 21 0
BBX 19 23 2 0
BITMAP
E00780
E00F00
E01E00
E03C00
E07800
E0F000
E1E000
E3C000
E78000
EF0000
FF0000
FF8000
FBC000
F1E000
E0F000
E07800
E03C00
E01E00
E00F00
E00780
E003C0
E001E0
E000E0
ENDCHAR
STARTCHAR L
ENCODING 76
SWIDTH 562 0
DWIDTH 18 0
BBX 15 23 3 0
BITMAP
E000
E000
E000
E000
E000
E000
E000
E000
E000
E000
E000
E000
E000
E000
E000
E000
E000
E000
E000
E000
FFFE
FFFE
FFFE
ENDCHAR
STARTCHAR M
ENCODING 77
SWIDTH 812 0
DWIDTH 26 0
BBX 21 23 3 0
BITMAP
F00078
F800F8
F800F8
F800F8
FC01F8
FC01F8
FC01F8
FE03F8
EE03B8
EE03B8
EF07B8
E70738
E70738
E78F38
E38E38
E38E38
E3DE38
E1DC38
E1DC38
E1FC38
E0F838
E0F838
E0F838
ENDCHAR
STARTCHAR N
ENCODING 78
SWIDTH 750 0
DWIDTH 24 0
BBX 19 23 3 0
BITMAP
F000E0
F800E0
F800E0
FC00E0
FE00E0
EE00E0
EF00E0
E780E0
E380E0
E3C0E0
E1E0E0
E0E0E0
E0F0E0
E078E0
E038E0
E03CE0
E01EE0
E00EE0
E00FE0
E007E0
E003E0
E003E0
E001E0
ENDCHAR
STARTCHAR O
ENCODING 79
SWIDTH 781 0
DWIDTH 25 0
BBX 22 23 2 0
BITMAP
00FC00
07FF80
0FFFC0
1F03E0
3C00F0
780078
700038
700038
E0001C
E0001C
E0001C
E0001C
E0001C
E0001C
E0001C
700038
700038
780078
3C00F0
1F03E0
0FFFC0
07FF80
00FC00
ENDCHAR
STARTCHAR P
ENCODING 80
SWIDTH 656 0
DWIDTH 21 0
BBX 17 23 3 0
BITMAP
FFF800
FFFE00
FFFF00
E00F00
E00780
E00380
E00380
E00380
E00380
E00780
E00F00
FFFF00
FFFE00
FFF800
E00000
E00000
E00000
E00000
E00000
E00000
E00000
E00000
E00000
ENDCHAR
STARTCHAR Q
ENCODING 81
SWIDTH 781 0
DWIDTH 25 0
BBX 22 23 2 0
BITMAP
00FC00
07FF80
0FFFC0
1F03E0
3C00F0
780078
700038
700038
E0001C
E0001C
E0001C
E0001C
E0001C
E0001C
E0031C
7007B8
7003F8
7801F8
3C00F0
1F03F8
0FFFFC
07FF9C
00FC08
ENDCHAR
STARTCHAR R
ENCODING 82
SWIDTH 687 0
DWIDTH 22 0
BBX 18 23 3 0
BITMAP
FFF800
FFFE00
FFFF00
E00700
E00380
E00380
E00380
E00380
E00780
E00F00
FFFF00
FFFE00
FFFF00
E00F00
E00780
E00380
E00380
E00380
E00380
E00380
E00380
E003C0
E001C0
ENDCHAR
STARTCHAR S
ENCODING 83
SWIDTH 656 0
DWIDTH 21 0
BBX 19 23 1 0
BITMAP
07FC00
1FFF00
3FFF80
3C0780
7803C0
7001C0
700000
780000
3C0000
3FC000
1FFE00
07FF80
007FC0
0003C0
0001E0
0000E0
E000E0
F000E0
7001E0
7C03C0
3FFFC0
1FFF80
07FE00
ENDCHAR
STARTCHAR T
ENCODING 84
SWIDTH 625 0
DWIDTH 20 0
BBX 19 23 1 0
BITMAP
FFFFE0
FFFFE0
FFFFE0
00E000
00E000
00E000
00E000
00E000
00E000
00E000
00E000
00E000
00E000
00E000
00E000
00E000
00E000
00E000
00E000
00E000
00E000
00E000
00E000
ENDCHAR
STARTCHAR U
ENCODING 85
SWIDTH 718 0
DWIDTH 23 0
BBX 18 23 3 0
BITMAP
E001C0
E001C0
E001C0
E001C0
E001C0
E001C0
E001C0
E001C0
E001C0
E001C0
E001C0
E001C0
E001C0
E001C0
E001C0
E001C0
E001C0
F003C0
700380
7C0F80
3FFF00
1FFE00
07F800
ENDCHAR
STARTCHAR V
ENCODING 86
SWIDTH 687 0
DWIDTH 22 0
BBX 21 23 1 0
BITMAP
E00038
F00078
700070
700070
7800F0
3800E0
3C01E0
1C01C0
1C01C0
1E03C0
0E0380
0E0380
0F0780
070700
078F00
038E00
038E00
03DE00
01DC00
01FC00
01FC00
00F800
00F800
ENDCHAR
STARTCHAR W
ENCODING 87
SWIDTH 968 0
DWIDTH 31 0
BBX 30 23 1 0
BITMAP
E007801C
E007801C
E007801C
F00FC03C
700FC038
700FC038
781FE078
381CE070
381CE070
3C3CF0F0
1C3870E0
1C3870E0
1E7879E0
0E7039C0
0E7039C0
0FF03FC0
07E01F80
07E01F80
07E01F80
03C00F00
03C00F00
03C00F00
03C00F00
ENDCHAR
STARTCHAR X
ENCODING 88
SWIDTH 656 0
DWIDTH 21 0
BBX 20 23 1 0
BITMAP
7000E0
7801E0
3801C0
3C03C0
1E0780
0F0F00
070E00
079E00
03FC00
01F800
00F000
00F000
01F800
03FC00
039C00
079E00
0F0F00
1E0780
1C0380
3C03C0
7801E0
F000F0
E00070
ENDCHAR
STARTCHAR Y
ENCODING 89
SWIDTH 687 0
DWIDTH 22 0
BBX 21 23 1 0
BITMAP
E00038
F00078
7800F0
3C01E0
1C01C0
1E03C0
0F0780
078F00
038E00
03DE00
01FC00
00F800
007000
007000
007000
007000
007000
007000
007000
007000
007000
007000
007000
ENDCHAR
STARTCHAR Z
ENCODING 90
SWIDTH 625 0
DWIDTH 20 0
BBX 19 23 1 0
BITMAP
7FFFC0
7FFFC0
7FFFC0
0003C0
000780
000F00
001E00
003C00
007800
007000
00F000
01E000
03C000
078000
070000
0F0000
1E0000
3C0000
780000
F00000
FFFFE0
FFFFE0
FFFFE0
ENDCHAR
STARTCHAR bracketleft
ENCODING 91
SWIDTH 281 0
DWIDTH 9 0
BBX 6 30 2 -7
BITMAP
FC
FC
FC
E0
E0
E0
E0
E0
E0
E0
E0
E0
E0
E0
E0
E0
E0
E0
E0
E0
E0
E0
E0
E0
E0
E0
E0
FC
FC
FC
ENDCHAR
STARTCHAR backslash
ENCODING 92
SWIDTH 281 0
DWIDTH 9 0
BBX 9 23 0 0
BITMAP
E000
E000
E000
7000
7000
7000
7000
3800
3800
3800
1C00
1C00
1C00
1C00
0E00
0E00
0E00
0700
0700
0700
0380
0380
0380
ENDCHAR
STARTCHAR bracketright
ENCODING 93
SWIDTH 281 0
DWIDTH 9 0
BBX 6 30 1 -7
BITMAP
FC
FC
FC
1C
1C
1C
1C
1C
1C
1C
1C
1C
1C
1C
1C
1C
1C
1C
1C
1C
1C
1C
1C
1C
1C
1C
1C
FC
FC
FC
ENDCHAR
STARTCHAR asciicircum
ENCODING 94
SWIDTH 468 0
DWIDTH 15 0
BBX 13 5 1 18
BITMAP
0F80
1FC0
3DE0
7070
C018
ENDCHAR
STARTCHAR underscore
ENCODING 95
SWIDTH 562 0
DWIDTH 18 0
BBX 18 2 0 -3
BITMAP
FFFFC0
FFFFC0
ENDCHAR
STARTCHAR grave
ENCODING 96
SWIDTH 343 0
DWIDTH 11 0
BBX 7 4 2 19
BITMAP
F8
3C
0E
02
ENDCHAR
STARTCHAR a
ENCODING 97
SWIDTH 562 0
DWIDTH 18 0
BBX 17 16 1 0
BITMAP
0FF000
3FFC00
381C00
700E00
000E00
001E00
0FFE00
3FEE00
780E00
700E00
E00E00
E00E00
E01E00
703F00
7FF780
1FC380
ENDCHAR
STARTCHAR b
ENCODING 98
SWIDTH 562 0
DWIDTH 18 0
BBX 15 23 2 0
BITMAP
E000
E000
E000
E000
E000
E000
E000
E7E0
FFF8
FC7C
F01C
F01E
E00E
E00E
E00E
E00E
E00E
E00E
F01E
F01C
FC7C
FFF8
E7E0
ENDCHAR
STARTCHAR c
ENCODING 99
SWIDTH 500 0
DWIDTH 16 0
BBX 15 16 1 0
BITMAP
0FF0
3FFC
7C3E
700E
F00E
E000
E000
E000
E000
E000
E000
F00E
700E
7C3E
3FFC
0FF0
ENDCHAR
STARTCHAR d
ENCODING 100
SWIDTH 562 0
DWIDTH 18 0
BBX 15 23 1 0
BITMAP
000E
000E
000E
000E
000E
000E
000E
0FCE
3FFE
7C7E
701E
F01E
E00E
E00E
E00E
E00E
E00E
E00E
F01E
701E
7C7E
3FFE
0FCE
ENDCHAR
STARTCHAR e
ENCODING 101
SWIDTH 531 0
DWIDTH 17 0
BBX 15 16 1 0
BITMAP
0FE0
3FF8
7C7C
701C
F01E
E00E
FFFE
FFFE
E000
E000
E000
F01E
701C
7C7C
3FF8
0FE0
ENDCHAR
STARTCHAR f
ENCODING 102
SWIDTH 281 0
DWIDTH 9 0
BBX 9 23 0 0
BITMAP
0380
0F80
0E00
1C00
1C00
1C00
1C00
FF80
FF80
1C00
1C00
1C00
1C00
1C00
1C00
1C00
1C00
1C00
1C00
1C00
1C00
1C00
1C00
ENDCHAR
STARTCHAR g
ENCODING 103
SWIDTH 562 0
DWIDTH 18 0
BBX 15 23 1 -7
BITMAP
0FCE
3FFE
7C7E
701E
F01E
E00E
E00E
E00E
E00E
E00E
E00E
F01E
701E
7C7E
3FFE
0FCE
000E
000E
701C
701C
3C78
1FF0
07C0
ENDCHAR
STARTCHAR h
ENCODING 104
SWIDTH 562 0
DWIDTH 18 0
BBX 14 23 2 0
BITMAP
E000
E000
E000
E000
E000
E000
E000
E7E0
EFF8
F878
F03C
E01C
E01C
E01C
E01C
E01C
E01C
E01C
E01C
E01C
E01C
E01C
E01C
ENDCHAR
STARTCHAR i
ENCODING 105
SWIDTH 218 0
DWIDTH 7 0
BBX 3 23 2 0
BITMAP
E0
E0
E0
00
00
00
00
E0
E0
E0
E0
E0
E0
E0
E0
E0
E0
E0
E0
E0
E0
E0
E0
ENDCHAR
STARTCHAR j
ENCODING 106
SWIDTH 218 0
DWIDTH 7 0
BBX 5 30 0 -7
BITMAP
38
38
38
00
00
00
00
38
38
38
38
38
38
38
38
38
38
38
38
38
38
38
38
38
38
38
38
78
F0
E0
ENDCHAR
STARTCHAR k
ENCODING 107
SWIDTH 500 0
DWIDTH 16 0
BBX 14 23 2 0
BITMAP
E000
E000
E000
E000
E000
E000
E000
E070
E0E0
E1C0
E380
E700
EE00
FE00
FF00
F780
E3C0
E1C0
E1E0
E0F0
E078
E038
E03C
ENDCHAR
STARTCHAR l
ENCODING 108
SWIDTH 218 0
DWIDTH 7 0
BBX 3 23 2 0
BITMAP
E0
E0
E0
E0
E0
E0
E0
E0
E0
E0
E0
E0
E0
E0
E0
E0
E0
E0
E0
E0
E0
E0
E0
ENDCHAR
STARTCHAR m
ENCODING 109
SWIDTH 843 0
DWIDTH 27 0
BBX 23 16 2 0
BITMAP
E7C1F0
EFF3FC
F8F63C
F07C1E
E0380E
E0380E
E0380E
E0380E
E0380E
E0380E
E0380E
E0380E
E0380E
E0380E
E0380E
E0380E
ENDCHAR
STARTCHAR n
ENCODING 110
SWIDTH 562 0
DWIDTH 18 0
BBX 14 16 2 0
BITMAP
E7E0
EFF8
F878
F03C
E01C
E01C
E01C
E01C
E01C
E01C
E01C
E01C
E01C
E01C
E01C
E01C
ENDCHAR
STARTCHAR o
ENCODING 111
SWIDTH 562 0
DWIDTH 18 0
BBX 16 16 1 0
BITMAP
0FF0
3FFC
7C3E
700E
F00F
E007
E007
E007
E007
E007
E007
F00F
700E
7C3E
3FFC
0FF0
ENDCHAR
STARTCHAR p
ENCODING 112
SWIDTH 562 0
DWIDTH 18 0
BBX 15 22 2 -6
BITMAP
E7E0
FFF8
FC7C
F01C
F01E
E00E
E00E
E00E
E00E
E00E
E00E
F01E
F01C
FC7C
FFF8
E7E0
E000
E000
E000
E000
E000
E000
ENDCHAR
STARTCHAR q
ENCODING 113
SWIDTH 562 0
DWIDTH 18 0
BBX 15 22 1 -6
BITMAP
0FCE
3FFE
7C7E
701E
F01E
E00E
E00E
E00E
E00E
E00E
E00E
F01E
701E
7C7E
3FFE
0FCE
000E
000E
000E
000E
000E
000E
ENDCHAR
STARTCHAR r
ENCODING 114
SWIDTH 343 0
DWIDTH 11 0
BBX 9 16 2 0
BITMAP
E780
EF80
F800
F000
E000
E000
E000
E000
E000
E000
E000
E000
E000
E000
E000
E000
ENDCHAR
STARTCHAR s
ENCODING 115
SWIDTH 500 0
DWIDTH 16 0
BBX 14 16 1 0
BITMAP
1FC0
7FF0
7070
E038
E000
E000
7000
7FE0
1FF8
0038
001C
E01C
E01C
7038
7FF8
1FE0
ENDCHAR
STARTCHAR t
ENCODING 116
SWIDTH 281 0
DWIDTH 9 0
BBX 9 22 0 0
BITMAP
1C00
1C00
1C00
1C00
1C00
1C00
FF80
FF80
1C00
1C00
1C00
1C00
1C00
1C00
1C00
1C00
1C00
1C00
1C00
0E00
0F80
0380
ENDCHAR
STARTCHAR u
ENCODING 117
SWIDTH 562 0
DWIDTH 18 0
BBX 14 16 2 0
BITMAP
E01C
E01C
E01C
E01C
E01C
E01C
E01C
E01C
E01C
E01C
E01C
E01C
F03C
787C
7FDC
1F9C
ENDCHAR
STARTCHAR v
ENCODING 118
SWIDTH 468 0
DWIDTH 15 0
BBX 15 16 0 0
BITMAP
E00E
E00E
E00E
701C
701C
3838
3838
1C70
1C70
0EE0
0EE0
0FE0
07C0
07C0
0380
0380
ENDCHAR
STARTCHAR w
ENCODING 119
SWIDTH 718 0
DWIDTH 23 0
BBX 23 16 0 0
BITMAP
E0380E
E0380E
E0380E
707C1C
707C1C
38EE38
38EE38
38EE38
1DC770
1DC770
1DC770
0F83E0
0F83E0
0701C0
0701C0
0701C0
ENDCHAR
STARTCHAR x
ENCODING 120
SWIDTH 468 0
DWIDTH 15 0
BBX 15 16 0 0
BITMAP
E00E
F01E
783C
3C78
1C70
1EF0
0FE0
07C0
07C0
0FE0
1EF0
1C70
3C78
783C
F01E
E00E
ENDCHAR
STARTCHAR y
ENCODING 121
SWIDTH 468 0
DWIDTH 15 0
BBX 15 23 0 -7
BITMAP
E00E
E00E
E00E
701C
701C
3838
3838
1C70
1C70
0EE0
0EE0
07C0
07C0
0380
0380
0700
0700
0E00
0E00
1C00
3C00
F800
E000
ENDCHAR
STARTCHAR z
ENCODING 122
SWIDTH 500 0
DWIDTH 16 0
BBX 14 16 1 0
BITMAP
FFF8
FFF8
FFF8
0078
00F0
01E0
03C0
0780
0700
0F00
1E00
3C00
7800
FFFC
FFFC
FFFC
ENDCHAR
STARTCHAR braceleft
ENCODING 123
SWIDTH 343 0
DWIDTH 11 0
BBX 10 25 1 -1
BITMAP
03C0
0FC0
0F00
1E00
1C00
1C00
1C00
1C00
1C00
1800
3800
7000
E000
7000
3800
1800
1C00
1C00
1C00
1C00
1C00
1E00
0F00
0FC0
03C0
ENDCHAR
STARTCHAR bar
ENCODING 124
SWIDTH 218 0
DWIDTH 7 0
BBX 3 23 2 0
BITMAP
E0
E0
E0
E0
E0
E0
E0
E0
E0
E0
E0
E0
E0
E0
E0
E0
E0
E0
E0
E0
E0
E0
E0
ENDCHAR
STARTCHAR braceright
ENCODING 125
SWIDTH 343 0
DWIDTH 11 0
BBX 10 25 1 -1
BITMAP
F000
FC00
3C00
1E00
0E00
0E00
0E00
0E00
0E00
0E00
0700
0780
03C0
0380
0700
0600
0E00
0E00
0E00
0E00
0E00
1E00
3C00
FC00
F000
ENDCHAR
STARTCHAR asciitilde
ENCODING 126
SWIDTH 593 0
DWIDTH 19 0
BBX 16 5 2 18
BITMAP
3E07
7F07
F3CF
E0FE
E07C
ENDCHAR
STARTCHAR not
ENCODING 127
SWIDTH 312 0
DWIDTH 10 0
BBX 8 4 1 4
BITMAP
FF
FF
03
03
ENDCHAR
STARTCHAR afii10051
ENCODING 128
SWIDTH 562 0
DWIDTH 18 0
BBX 17 23 1 0
BITMAP
FFC000
FFC000
1C0000
1C0000
1C0000
1C0000
1C0000
1CFC00
1DFF00
1F0F00
1E0780
1C0380
1C0380
1C0380
1C0380
1C0380
1C0380
1C0380
1C0380
1C6380
1C6780
1C7F00
1C3E00
ENDCHAR
STARTCHAR afii10052
ENCODING 129
SWIDTH 656 0
DWIDTH 21 0
BBX 17 26 3 0
BITMAP
007800
00F000
01C000
FFFF80
FFFF80
FFFF80
E00000
E00000
E00000
E00000
E00000
E00000
E00000
E00000
E00000
E00000
E00000
E00000
E00000
E00000
E00000
E00000
E00000
E00000
E00000
E00000
ENDCHAR
STARTCHAR cedilla
ENCODING 130
SWIDTH 250 0
DWIDTH 8 0
BBX 5 6 3 -4
BITMAP
C0
70
38
18
30
C0
ENDCHAR
STARTCHAR afii10100
ENCODING 131
SWIDTH 500 0
DWIDTH 16 0
BBX 13 21 2 0
BITMAP
01C0
0380
0300
0600
0000
FFF8
FFF8
E000
E000
E000
E000
E000
E000
E000
E000
E000
E000
E000
E000
E000
E000
ENDCHAR
STARTCHAR quotedblbase
ENCODING 132
SWIDTH 343 0
DWIDTH 11 0
BBX 9 8 1 -4
BITMAP
E380
E380
E380
E380
6180
6180
6180
C300
ENDCHAR
STARTCHAR ellipsis
ENCODING 133
SWIDTH 562 0
DWIDTH 18 0
BBX 13 3 3 0
BITMAP
E738
E738
E738
ENDCHAR
STARTCHAR dagger
ENCODING 134
SWIDTH 593 0
DWIDTH 19 0
BBX 17 23 1 0
BITMAP
01C000
01C000
01C000
01C000
01C000
01C000
01C000
01C000
FFFF80
FFFF80
FFFF80
01C000
01C000
01C000
01C000
01C000
01C000
01C000
01C000
01C000
01C000
01C000
01C000
ENDCHAR
STARTCHAR section
ENCODING 135
SWIDTH 375 0
DWIDTH 12 0
BBX 10 19 1 0
BITMAP
1F00
3F80
60C0
6000
6000
3E00
3F80
3180
60C0
60C0
60C0
3180
3F80
1F00
0180
0180
C180
7F00
3E00
ENDCHAR
STARTCHAR Euro
ENCODING 136
SWIDTH 718 0
DWIDTH 23 0
BBX 23 23 0 0
BITMAP
003F00
01FFE0
03FFF0
07C0F8
0F003C
1E001E
1C000E
1C000E
FFE000
FFE000
380000
380000
FFE000
FFE000
380000
1C000E
1C000E
1E001E
0F003C
07C0F8
03FFF0
01FFE0
003F00
ENDCHAR
STARTCHAR dieresis
ENCODING 137
SWIDTH 343 0
DWIDTH 11 0
BBX 9 3 1 20
BITMAP
E380
E380
E380
ENDCHAR
STARTCHAR afii10058
ENCODING 138
SWIDTH 781 0
DWIDTH 25 0
BBX 21 23 2 0
BITMAP
0FFC00
1FFC00
1FFC00
1C1C00
1C1C00
1C1C00
1C1C00
1C1C00
1C1C00
1C1FE0
1C1FF0
1C1FF8
1C1C78
1C1C38
1C1C38
1C1C38
1C1C38
1C1C38
1C1C38
1C1C78
1C1FF8
FC1FF0
F81FE0
ENDCHAR
STARTCHAR guilsinglleft
ENCODING 139
SWIDTH 531 0
DWIDTH 17 0
BBX 14 16 3 3
BITMAP
000C
003C
00FC
03F0
0FC0
3F00
7C00
F000
F000
7C00
3F00
0FC0
03F0
00FC
003C
000C
ENDCHAR
STARTCHAR afii10059
ENCODING 140
SWIDTH 750 0
DWIDTH 24 0
BBX 21 23 3 0
BITMAP
E01C00
E01C00
E01C00
E01C00
E01C00
E01C00
E01C00
E01C00
E01C00
FFFFE0
FFFFF0
FFFFF8
E01C78
E01C38
E01C38
E01C38
E01C38
E01C38
E01C38
E01C78
E01FF8
E01FF0
E01FE0
ENDCHAR
STARTCHAR afii10061
ENCODING 141
SWIDTH 656 0
DWIDTH 21 0
BBX 19 26 2 0
BITMAP
00F000
01E000
01C000
E38780
E00F00
E01E00
E03C00
E07800
E0F000
E1E000
E3C000
E78000
EF0000
FF0000
FF8000
FBC000
F1E000
E0F000
E07800
E03C00
E01E00
E00F00
E00780
E003C0
E001E0
E000E0
ENDCHAR
STARTCHAR afii10060
ENCODING 142
SWIDTH 531 0
DWIDTH 17 0
BBX 16 23 1 0
BITMAP
FFC0
FFC0
1C00
1C00
1C00
1C00
1C00
1CF8
1DFE
1F1E
1E0F
1C07
1C07
1C07
1C07
1C07
1C07
1C07
1C07
1C07
1C07
1C07
1C07
ENDCHAR
STARTCHAR afii10145
ENCODING 143
SWIDTH 687 0
DWIDTH 22 0
BBX 18 26 3 -3
BITMAP
E001C0
E001C0
E001C0
E001C0
E001C0
E001C0
E001C0
E001C0
E001C0
E001C0
E001C0
E001C0
E001C0
E001C0
E001C0
E001C0
E001C0
E001C0
E001C0
E001C0
FFFFC0
FFFFC0
FFFFC0
01E000
01E000
01E000
ENDCHAR
STARTCHAR afii10099
ENCODING 144
SWIDTH 531 0
DWIDTH 17 0
BBX 16 27 1 -4
BITMAP
3800
3800
FF80
FF80
3800
3800
3800
39F8
3BFE
3E1E
3C0F
3807
3807
3807
3807
3807
3807
3807
3807
3807
3807
3807
3807
000E
001C
0038
0030
ENDCHAR
STARTCHAR quoteleft
ENCODING 145
SWIDTH 218 0
DWIDTH 7 0
BBX 3 8 2 15
BITMAP
60
C0
C0
C0
E0
E0
E0
E0
ENDCHAR
STARTCHAR quoteright
ENCODING 146
SWIDTH 218 0
DWIDTH 7 0
BBX 3 8 2 15
BITMAP
E0
E0
E0
E0
60
60
60
C0
ENDCHAR
STARTCHAR quotedblleft
ENCODING 147
SWIDTH 343 0
DWIDTH 11 0
BBX 9 8 1 15
BITMAP
6180
C300
C300
C300
E380
E380
E380
E380
ENDCHAR
STARTCHAR quotedblright
ENCODING 148
SWIDTH 343 0
DWIDTH 11 0
BBX 9 8 1 15
BITMAP
E380
E380
E380
E380
6180
6180
6180
C300
ENDCHAR
STARTCHAR bullet
ENCODING 149
SWIDTH 375 0
DWIDTH 12 0
BBX 10 9 1 3
BITMAP
3F00
7F80
FFC0
FFC0
FFC0
FFC0
FFC0
7F80
3F00
ENDCHAR
STARTCHAR endash
ENCODING 150
SWIDTH 375 0
DWIDTH 12 0
BBX 11 2 1 6
BITMAP
FFE0
FFE0
ENDCHAR
STARTCHAR emdash
ENCODING 151
SWIDTH 500 0
DWIDTH 16 0
BBX 15 2 1 6
BITMAP
FFFE
FFFE
ENDCHAR
STARTCHAR sterling
ENCODING 152
SWIDTH 656 0
DWIDTH 21 0
BBX 20 23 1 0
BITMAP
03F000
07F800
071C00
071C00
071C00
071C00
070000
070000
070000
070000
3FF800
3FFC00
3FFC00
070000
070000
070000
070000
070000
070000
1FC000
FFFFF0
FFFFF0
E03FF0
ENDCHAR
STARTCHAR periodcentered
ENCODING 153
SWIDTH 281 0
DWIDTH 9 0
BBX 3 3 3 7
BITMAP
E0
E0
E0
ENDCHAR
STARTCHAR afii10106
ENCODING 154
SWIDTH 656 0
DWIDTH 21 0
BBX 19 16 1 0
BITMAP
0FF800
1FF800
1C3800
1C3800
1C3800
1C3800
1C3800
1C3F80
1C3FC0
1C39E0
1C38E0
1C38E0
1C38E0
1C39E0
FC3FC0
F83F80
ENDCHAR
STARTCHAR guilsinglright
ENCODING 155
SWIDTH 500 0
DWIDTH 16 0
BBX 14 16 2 3
BITMAP
C000
F000
FC00
3F00
0FC0
03F0
00F8
003C
003C
00F8
03F0
0FC0
3F00
FC00
F000
C000
ENDCHAR
STARTCHAR afii10107
ENCODING 156
SWIDTH 687 0
DWIDTH 22 0
BBX 18 16 2 0
BITMAP
E07000
E07000
E07000
E07000
E07000
E07000
E07000
FFFF00
FFFF80
E073C0
E071C0
E071C0
E071C0
E073C0
E07F80
E07F00
ENDCHAR
STARTCHAR afii10109
ENCODING 157
SWIDTH 500 0
DWIDTH 16 0
BBX 14 19 2 0
BITMAP
0380
0380
0700
E670
E0E0
E1C0
E380
E700
EE00
FE00
FF00
F780
E3C0
E1C0
E1E0
E0F0
E078
E038
E03C
ENDCHAR
STARTCHAR afii10108
ENCODING 158
SWIDTH 531 0
DWIDTH 17 0
BBX 16 23 1 0
BITMAP
3800
3800
FF80
FF80
3800
3800
3800
39F8
3BFE
3E1E
3C0F
3807
3807
3807
3807
3807
3807
3807
3807
3807
3807
3807
3807
ENDCHAR
STARTCHAR afii10193
ENCODING 159
SWIDTH 531 0
DWIDTH 17 0
BBX 14 19 2 -3
BITMAP
E01C
E01C
E01C
E01C
E01C
E01C
E01C
E01C
E01C
E01C
E01C
E01C
E01C
E01C
FFFC
FFFC
0780
0780
0780
ENDCHAR
STARTCHAR space
ENCODING 160
SWIDTH 281 0
DWIDTH 9 0
BBX 0 0 0 0
BITMAP
ENDCHAR
STARTCHAR afii10196
ENCODING 161
SWIDTH 531 0
DWIDTH 17 0
BBX 17 16 0 0
BITMAP
E00000
E00780
E00F80
701D80
701C00
383800
383800
1C7000
1C7000
0EE000
0EE000
0FE000
07C000
07C000
038000
038000
ENDCHAR
STARTCHAR afii10194
ENCODING 162
SWIDTH 625 0
DWIDTH 20 0
BBX 18 21 1 0
BITMAP
1C0000
1C0000
1C0000
1C0000
1C0000
FFC000
FFC000
1C0000
1C0000
1C0000
1C0000
1C0000
1FFF00
1FFF80
1C03C0
1C01C0
1C01C0
1C01C0
1C03C0
1FFF80
1FFF00
ENDCHAR
STARTCHAR afii10071
ENCODING 163
SWIDTH 531 0
DWIDTH 17 0
BBX 15 20 1 0
BITMAP
1C38
1C38
1C38
0000
0FE0
3FF8
7C7C
701C
F01E
E00E
FFFE
FFFE
E000
E000
E000
F01E
701C
7C7C
3FF8
0FE0
ENDCHAR
STARTCHAR afii10101
ENCODING 164
SWIDTH 531 0
DWIDTH 17 0
BBX 15 16 1 0
BITMAP
0FF0
3FFC
7C3E
700E
F000
E000
E000
FF80
FF80
E000
E000
F000
700E
7C3E
3FFC
0FF0
ENDCHAR
STARTCHAR afii10102
ENCODING 165
SWIDTH 500 0
DWIDTH 16 0
BBX 14 16 1 0
BITMAP
1FC0
7FF0
7070
E038
E000
E000
7000
7FE0
1FF8
0038
001C
E01C
E01C
7038
7FF8
1FE0
ENDCHAR
STARTCHAR afii10103
ENCODING 166
SWIDTH 218 0
DWIDTH 7 0
BBX 3 23 2 0
BITMAP
E0
E0
E0
00
00
00
00
E0
E0
E0
E0
E0
E0
E0
E0
E0
E0
E0
E0
E0
E0
E0
E0
ENDCHAR
STARTCHAR afii10104
ENCODING 167
SWIDTH 218 0
DWIDTH 7 0
BBX 7 23 0 0
BITMAP
EE
EE
EE
00
00
00
00
38
38
38
38
38
38
38
38
38
38
38
38
38
38
38
38
ENDCHAR
STARTCHAR afii10105
ENCODING 168
SWIDTH 218 0
DWIDTH 7 0
BBX 5 30 0 -7
BITMAP
38
38
38
00
00
00
00
38
38
38
38
38
38
38
38
38
38
38
38
38
38
38
38
38
38
38
38
78
F0
E0
ENDCHAR
STARTCHAR registered
ENCODING 169
SWIDTH 750 0
DWIDTH 24 0
BBX 22 23 1 0
BITMAP
007800
03FF00
0F03C0
1C00E0
380070
300030
63F818
63FC18
430E08
C3060C
C30E0C
C3FC0C
C3F00C
C3380C
431C08
630E18
630718
330330
380070
1C00E0
0F03C0
03FF00
007800
ENDCHAR
STARTCHAR trademark
ENCODING 170
SWIDTH 531 0
DWIDTH 17 0
BBX 15 9 2 14
BITMAP
FD86
FDCE
31FE
31B6
3186
3186
3186
3186
3186
ENDCHAR
STARTCHAR guillemotleft
ENCODING 171
SWIDTH 750 0
DWIDTH 24 0
BBX 23 16 1 3
BITMAP
000306
000F1E
003C78
00F1E0
03C780
0F1E00
3C7800
F1E000
F1E000
3C7800
0F1E00
03C780
00F1E0
003C78
000F1E
000306
ENDCHAR
STARTCHAR afii10195
ENCODING 172
SWIDTH 562 0
DWIDTH 18 0
BBX 16 16 1 0
BITMAP
0FF0
3FFC
7C3E
700E
F00F
E007
E007
FFFF
FFFF
E007
E007
F00F
700E
7C3E
3FFC
0FF0
ENDCHAR
STARTCHAR afii10098
ENCODING 173
SWIDTH 500 0
DWIDTH 16 0
BBX 13 18 2 0
BITMAP
0018
0018
FFF8
FFF8
E000
E000
E000
E000
E000
E000
E000
E000
E000
E000
E000
E000
E000
E000
ENDCHAR
STARTCHAR afii10110
ENCODING 174
SWIDTH 468 0
DWIDTH 15 0
BBX 15 27 0 -7
BITMAP
0C60
0C60
06C0
07C0
E38E
E00E
E00E
701C
701C
3838
3838
1C70
1C70
0EE0
0EE0
07C0
07C0
0380
0380
0700
0700
0E00
0E00
1C00
3C00
F800
E000
ENDCHAR
STARTCHAR acute
ENCODING 175
SWIDTH 218 0
DWIDTH 7 0
BBX 6 8 5 15
BITMAP
1C
3C
38
70
60
40
80
80
ENDCHAR
STARTCHAR degree
ENCODING 176
SWIDTH 343 0
DWIDTH 11 0
BBX 9 9 1 14
BITMAP
1C00
7F00
6300
C180
C180
C180
6300
7F00
1C00
ENDCHAR
STARTCHAR afii10148
ENCODING 177
SWIDTH 781 0
DWIDTH 25 0
BBX 24 23 1 0
BITMAP
E00000
F0003F
70007F
700077
7800F7
3800E0
3C01E0
1C01C0
1C01C0
1E03C0
0E0380
0E0380
0F0780
070700
078F00
038E00
038E00
03DE00
01DC00
01FC00
01FC00
00F800
00F800
ENDCHAR
STARTCHAR afii10146
ENCODING 178
SWIDTH 750 0
DWIDTH 24 0
BBX 22 26 1 0
BITMAP
0E0000
0E0000
0E0000
FFF800
FFF800
FFF800
0E0000
0E0000
0E0000
0E0000
0E0000
0E0000
0E0000
0FFFF0
0FFFF8
0FFFFC
0E003C
0E001C
0E001C
0E001C
0E001C
0E001C
0E003C
0FFFFC
0FFFF8
0FFFF0
ENDCHAR
STARTCHAR afii10023
ENCODING 179
SWIDTH 656 0
DWIDTH 21 0
BBX 17 26 3 0
BITMAP
1C1C00
1C1C00
000000
FFFF80
FFFF80
FFFF80
E00000
E00000
E00000
E00000
E00000
E00000
FFFE00
FFFE00
FFFE00
E00000
E00000
E00000
E00000
E00000
E00000
E00000
E00000
FFFF80
FFFF80
FFFF80
ENDCHAR
STARTCHAR afii10053
ENCODING 180
SWIDTH 750 0
DWIDTH 24 0
BBX 20 23 2 0
BITMAP
00FC00
07FF80
0FFFC0
1F03E0
3C00F0
780070
700000
700000
E00000
E00000
FFF000
FFF000
FFF000
E00000
E00000
700000
700000
780070
3C00F0
1F03E0
0FFFC0
07FF80
00FC00
ENDCHAR
STARTCHAR afii10054
ENCODING 181
SWIDTH 656 0
DWIDTH 21 0
BBX 19 23 1 0
BITMAP
07FC00
1FFF00
3FFF80
3C0780
7803C0
7001C0
700000
780000
3C0000
3FC000
1FFE00
07FF80
007FC0
0003C0
0001E0
0000E0
E000E0
F000E0
7001E0
7C03C0
3FFFC0
1FFF80
07FE00
ENDCHAR
STARTCHAR afii10055
ENCODING 182
SWIDTH 250 0
DWIDTH 8 0
BBX 3 23 3 0
BITMAP
E0
E0
E0
E0
E0
E0
E0
E0
E0
E0
E0
E0
E0
E0
E0
E0
E0
E0
E0
E0
E0
E0
E0
ENDCHAR
STARTCHAR afii10056
ENCODING 183
SWIDTH 250 0
DWIDTH 8 0
BBX 6 26 2 0
BITMAP
CC
CC
00
70
70
70
70
70
70
70
70
70
70
70
70
70
70
70
70
70
70
70
70
70
70
70
ENDCHAR
STARTCHAR afii10057
ENCODING 184
SWIDTH 500 0
DWIDTH 16 0
BBX 13 23 1 0
BITMAP
0038
0038
0038
0038
0038
0038
0038
0038
0038
0038
0038
0038
0038
0038
E038
E038
E038
E038
F078
78F0
7FF0
3FE0
0F80
ENDCHAR
STARTCHAR afii61352
ENCODING 185
SWIDTH 812 0
DWIDTH 26 0
BBX 23 23 3 0
BITMAP
E0071C
E00736
F00722
F80736
F8071C
FC0700
FE0700
EE073E
EF073E
E78700
E38700
E3C700
E1E700
E0E700
E0F700
E07F00
E03F00
E03F00
E01F00
E00F00
E00F00
E00700
E00700
ENDCHAR
STARTCHAR cent
ENCODING 186
SWIDTH 500 0
DWIDTH 16 0
BBX 15 20 1 -2
BITMAP
0180
0180
0FF0
3FFC
7DBE
718E
F18E
E180
E180
E180
E180
E180
E180
F18E
718E
7DBE
3FFC
0FF0
0180
0180
ENDCHAR
STARTCHAR guillemotright
ENCODING 187
SWIDTH 750 0
DWIDTH 24 0
BBX 23 16 1 3
BITMAP
C18000
F1E000
3C7800
0F1E00
03C780
00F1E0
003C78
000F1E
000F1E
003C78
00F1E0
03C780
0F1E00
3C7800
F1E000
C18000
ENDCHAR
STARTCHAR afii10147
ENCODING 188
SWIDTH 781 0
DWIDTH 25 0
BBX 22 23 2 0
BITMAP
00FC00
07FF80
0FFFC0
1F03E0
3C00F0
780078
700038
700038
E0001C
E0001C
FFFFFC
FFFFFC
E0001C
E0001C
E0001C
700038
700038
780078
3C00F0
1F03E0
0FFFC0
07FF80
00FC00
ENDCHAR
STARTCHAR afii10050
ENCODING 189
SWIDTH 656 0
DWIDTH 21 0
BBX 17 26 3 0
BITMAP
000380
000380
000380
FFFF80
FFFF80
FFFF80
E00000
E00000
E00000
E00000
E00000
E00000
E00000
E00000
E00000
E00000
E00000
E00000
E00000
E00000
E00000
E00000
E00000
E00000
E00000
E00000
ENDCHAR
STARTCHAR afii10062
ENCODING 190
SWIDTH 687 0
DWIDTH 22 0
BBX 21 25 1 0
BITMAP
038E00
038E00
E1DC38
F0F878
7870F0
3C01E0
1C01C0
1E03C0
0F0780
078F00
038E00
03DE00
01FC00
00F800
00F000
00E000
01E000
01C000
03C000
038000
070000
0F0000
1E0000
7C0000
780000
ENDCHAR
STARTCHAR copyright
ENCODING 191
SWIDTH 750 0
DWIDTH 24 0
BBX 22 23 1 0
BITMAP
007800
03FF00
0F03C0
1C00E0
380070
300030
607C18
60FE18
41C608
C1800C
C1800C
C1800C
C1800C
C1800C
41C608
60FE18
607C18
300030
380070
1C00E0
0F03C0
03FF00
007800
ENDCHAR
STARTCHAR afii10096
ENCODING 192
SWIDTH 718 0
DWIDTH 23 0
BBX 19 16 2 0
BITMAP
E0FE00
E3FF80
E7C7C0
E701C0
EF01E0
EE00E0
EE00E0
FE00E0
FE00E0
EE00E0
EE00E0
EF01E0
E701C0
E7C7C0
E3FF80
E0FE00
ENDCHAR
STARTCHAR afii10065
ENCODING 193
SWIDTH 562 0
DWIDTH 18 0
BBX 17 16 1 0
BITMAP
0FF000
3FFC00
381C00
700E00
000E00
001E00
0FFE00
3FEE00
780E00
700E00
E00E00
E00E00
E01E00
703F00
7FF780
1FC380
ENDCHAR
STARTCHAR afii10066
ENCODING 194
SWIDTH 562 0
DWIDTH 18 0
BBX 16 23 1 0
BITMAP
0006
003E
03FC
1FF0
3E00
7C00
7000
E7E0
FFF8
FC3C
F81E
F00E
E007
E007
E007
E007
E007
E007
700E
781E
3C3C
1FF8
07E0
ENDCHAR
STARTCHAR afii10088
ENCODING 195
SWIDTH 593 0
DWIDTH 19 0
BBX 16 19 2 -3
BITMAP
E01C
E01C
E01C
E01C
E01C
E01C
E01C
E01C
E01C
E01C
E01C
E01C
E01C
E01C
FFFF
FFFF
0007
0007
0007
ENDCHAR
STARTCHAR afii10069
ENCODING 196
SWIDTH 687 0
DWIDTH 22 0
BBX 20 19 1 -3
BITMAP
0FFF80
0FFF80
0E0380
0E0380
0E0380
0E0380
0E0380
0E0380
0E0380
0E0380
0E0380
0E0380
0E0380
1C0380
FFFFF0
FFFFF0
E00070
E00070
E00070
ENDCHAR
STARTCHAR afii10070
ENCODING 197
SWIDTH 531 0
DWIDTH 17 0
BBX 15 16 1 0
BITMAP
0FE0
3FF8
7C7C
701C
F01E
E00E
FFFE
FFFE
E000
E000
E000
F01E
701C
7C7C
3FF8
0FE0
ENDCHAR
STARTCHAR afii10086
ENCODING 198
SWIDTH 656 0
DWIDTH 21 0
BBX 19 27 1 -6
BITMAP
00E000
00E000
00E000
00E000
00E000
0FFE00
3FFF80
7CE7C0
70E1C0
F0E1E0
E0E0E0
E0E0E0
E0E0E0
E0E0E0
E0E0E0
E0E0E0
F0E1E0
70E1C0
7CE7C0
3FFF80
0FFE00
00E000
00E000
00E000
00E000
00E000
00E000
ENDCHAR
STARTCHAR afii10068
ENCODING 199
SWIDTH 500 0
DWIDTH 16 0
BBX 13 16 2 0
BITMAP
FFF8
FFF8
E000
E000
E000
E000
E000
E000
E000
E000
E000
E000
E000
E000
E000
E000
ENDCHAR
STARTCHAR afii10087
ENCODING 200
SWIDTH 468 0
DWIDTH 15 0
BBX 15 16 0 0
BITMAP
E00E
F01E
783C
3C78
1C70
1EF0
0FE0
07C0
07C0
0FE0
1EF0
1C70
3C78
783C
F01E
E00E
ENDCHAR
STARTCHAR afii10074
ENCODING 201
SWIDTH 562 0
DWIDTH 18 0
BBX 14 16 2 0
BITMAP
E01C
E01C
E01C
E03C
E07C
E0FC
E1FC
E3DC
E79C
EF1C
FE1C
FC1C
F81C
F01C
E01C
E01C
ENDCHAR
STARTCHAR afii10075
ENCODING 202
SWIDTH 562 0
DWIDTH 18 0
BBX 14 20 2 0
BITMAP
1CE0
1CE0
0FC0
0780
E01C
E01C
E01C
E03C
E07C
E0FC
E1FC
E3DC
E79C
EF1C
FE1C
FC1C
F81C
F01C
E01C
E01C
ENDCHAR
STARTCHAR afii10076
ENCODING 203
SWIDTH 500 0
DWIDTH 16 0
BBX 14 16 2 0
BITMAP
E070
E0E0
E1C0
E380
E700
EE00
FE00
FF00
F780
E3C0
E1C0
E1E0
E0F0
E078
E038
E03C
ENDCHAR
STARTCHAR afii10077
ENCODING 204
SWIDTH 562 0
DWIDTH 18 0
BBX 15 16 1 0
BITMAP
0FFE
1FFE
1C0E
1C0E
1C0E
1C0E
1C0E
1C0E
1C0E
1C0E
1C0E
1C0E
1C0E
1C0E
FC0E
F80E
ENDCHAR
STARTCHAR afii10078
ENCODING 205
SWIDTH 750 0
DWIDTH 24 0
BBX 20 16 2 0
BITMAP
E00070
F000F0
F801F0
FC03F0
FE07F0
EF0F70
E79E70
E3FC70
E1F870
E0F070
E06070
E00070
E00070
E00070
E00070
E00070
ENDCHAR
STARTCHAR afii10079
ENCODING 206
SWIDTH 562 0
DWIDTH 18 0
BBX 14 16 2 0
BITMAP
E01C
E01C
E01C
E01C
E01C
E01C
E01C
FFFC
FFFC
E01C
E01C
E01C
E01C
E01C
E01C
E01C
ENDCHAR
STARTCHAR afii10080
ENCODING 207
SWIDTH 562 0
DWIDTH 18 0
BBX 16 16 1 0
BITMAP
0FF0
3FFC
7C3E
700E
F00F
E007
E007
E007
E007
E007
E007
F00F
700E
7C3E
3FFC
0FF0
ENDCHAR
STARTCHAR afii10081
ENCODING 208
SWIDTH 562 0
DWIDTH 18 0
BBX 14 16 2 0
BITMAP
FFFC
FFFC
E01C
E01C
E01C
E01C
E01C
E01C
E01C
E01C
E01C
E01C
E01C
E01C
E01C
E01C
ENDCHAR
STARTCHAR afii10097
ENCODING 209
SWIDTH 531 0
DWIDTH 17 0
BBX 14 16 1 0
BITMAP
3FFC
7FFC
F01C
E01C
E01C
E01C
F01C
7FFC
3FFC
079C
0F1C
1E1C
3C1C
781C
F01C
E01C
ENDCHAR
STARTCHAR afii10082
ENCODING 210
SWIDTH 562 0
DWIDTH 18 0
BBX 15 22 2 -6
BITMAP
E7E0
FFF8
FC7C
F01C
F01E
E00E
E00E
E00E
E00E
E00E
E00E
F01E
F01C
FC7C
FFF8
E7E0
E000
E000
E000
E000
E000
E000
ENDCHAR
STARTCHAR afii10083
ENCODING 211
SWIDTH 500 0
DWIDTH 16 0
BBX 15 16 1 0
BITMAP
0FF0
3FFC
7C3E
700E
F00E
E000
E000
E000
E000
E000
E000
F00E
700E
7C3E
3FFC
0FF0
ENDCHAR
STARTCHAR afii10084
ENCODING 212
SWIDTH 562 0
DWIDTH 18 0
BBX 16 16 1 0
BITMAP
FFFF
FFFF
01C0
01C0
01C0
01C0
01C0
01C0
01C0
01C0
01C0
01C0
01C0
01C0
01C0
01C0
ENDCHAR
STARTCHAR afii10085
ENCODING 213
SWIDTH 468 0
DWIDTH 15 0
BBX 15 23 0 -7
BITMAP
E00E
E00E
E00E
701C
701C
3838
3838
1C70
1C70
0EE0
0EE0
07C0
07C0
0380
0380
0700
0700
0E00
0E00
1C00
3C00
F800
E000
ENDCHAR
STARTCHAR afii10072
ENCODING 214
SWIDTH 781 0
DWIDTH 25 0
BBX 25 16 0 0
BITMAP
381C0E00
3C1C1E00
1E1C3C00
0F1C7800
079CF000
03DDE000
01FFC000
01FFC000
03DDE000
079CF000
0F1C7800
1E1C3C00
3C1C1E00
781C0F00
F01C0780
E01C0380
ENDCHAR
STARTCHAR afii10067
ENCODING 215
SWIDTH 562 0
DWIDTH 18 0
BBX 14 16 2 0
BITMAP
FFE0
FFF0
E078
E038
E038
E038
FFF0
FFF0
E038
E01C
E01C
E01C
E01C
E038
FFF8
FFF0
ENDCHAR
STARTCHAR afii10094
ENCODING 216
SWIDTH 562 0
DWIDTH 18 0
BBX 15 16 2 0
BITMAP
E000
E000
E000
E000
E000
E000
E000
FFF8
FFFC
E01E
E00E
E00E
E00E
E01E
FFFC
FFF8
ENDCHAR
STARTCHAR afii10093
ENCODING 217
SWIDTH 718 0
DWIDTH 23 0
BBX 19 16 2 0
BITMAP
E000E0
E000E0
E000E0
E000E0
E000E0
E000E0
E000E0
FFF8E0
FFFCE0
E01EE0
E00EE0
E00EE0
E00EE0
E01EE0
FFFCE0
FFF8E0
ENDCHAR
STARTCHAR afii10073
ENCODING 218
SWIDTH 500 0
DWIDTH 16 0
BBX 14 16 1 0
BITMAP
1FE0
3FF0
7870
7038
0038
0038
03F0
03F0
0078
001C
001C
E01C
E01C
7038
7FF8
3FE0
ENDCHAR
STARTCHAR afii10090
ENCODING 219
SWIDTH 781 0
DWIDTH 25 0
BBX 21 16 2 0
BITMAP
E07038
E07038
E07038
E07038
E07038
E07038
E07038
E07038
E07038
E07038
E07038
E07038
E07038
E07038
FFFFF8
FFFFF8
ENDCHAR
STARTCHAR afii10095
ENCODING 220
SWIDTH 531 0
DWIDTH 17 0
BBX 15 16 1 0
BITMAP
1FE0
7FF8
F87C
E01C
001E
000E
000E
03FE
03FE
000E
000E
001E
E01C
F87C
7FF8
1FE0
ENDCHAR
STARTCHAR afii10091
ENCODING 221
SWIDTH 812 0
DWIDTH 26 0
BBX 23 19 2 -3
BITMAP
E07038
E07038
E07038
E07038
E07038
E07038
E07038
E07038
E07038
E07038
E07038
E07038
E07038
E07038
FFFFFE
FFFFFE
00000E
00000E
00000E
ENDCHAR
STARTCHAR afii10089
ENCODING 222
SWIDTH 562 0
DWIDTH 18 0
BBX 14 16 2 0
BITMAP
E01C
E01C
E01C
E01C
E01C
E01C
E01C
FFFC
7FFC
001C
001C
001C
001C
001C
001C
001C
ENDCHAR
STARTCHAR afii10092
ENCODING 223
SWIDTH 625 0
DWIDTH 20 0
BBX 18 16 1 0
BITMAP
FC0000
FC0000
1C0000
1C0000
1C0000
1C0000
1C0000
1FFF00
1FFF80
1C03C0
1C01C0
1C01C0
1C01C0
1C03C0
1FFF80
1FFF00
ENDCHAR
STARTCHAR afii10048
ENCODING 224
SWIDTH 906 0
DWIDTH 29 0
BBX 25 23 2 0
BITMAP
E00F8000
E07FF000
E0FFF800
E1F07C00
E3C01E00
E7800F00
E7000700
E7000700
EE000380
EE000380
FE000380
FE000380
FE000380
EE000380
EE000380
E7000700
E7000700
E7800F00
E3C01E00
E1F07C00
E0FFF800
E07FF000
E00F8000
ENDCHAR
STARTCHAR afii10017
ENCODING 225
SWIDTH 687 0
DWIDTH 22 0
BBX 21 23 1 0
BITMAP
00F800
00F800
01FC00
01FC00
01DC00
03DE00
038E00
038E00
078F00
070700
0F0780
0E0380
0E0380
1E03C0
1C01C0
1FFFC0
3FFFE0
3FFFE0
7800F0
700070
700070
F00078
E00038
ENDCHAR
STARTCHAR afii10018
ENCODING 226
SWIDTH 656 0
DWIDTH 21 0
BBX 17 23 3 0
BITMAP
FFFF00
FFFF00
FFFF00
E00000
E00000
E00000
E00000
E00000
E00000
FFF800
FFFC00
FFFE00
E00F00
E00700
E00380
E00380
E00380
E00380
E00780
E00F00
FFFF00
FFFE00
FFF800
ENDCHAR
STARTCHAR afii10040
ENCODING 227
SWIDTH 750 0
DWIDTH 24 0
BBX 20 26 3 -3
BITMAP
E001C0
E001C0
E001C0
E001C0
E001C0
E001C0
E001C0
E001C0
E001C0
E001C0
E001C0
E001C0
E001C0
E001C0
E001C0
E001C0
E001C0
E001C0
E001C0
E001C0
FFFFF0
FFFFF0
FFFFF0
000070
000070
000070
ENDCHAR
STARTCHAR afii10021
ENCODING 228
SWIDTH 718 0
DWIDTH 23 0
BBX 21 26 1 -3
BITMAP
07FFC0
07FFC0
07FFC0
0701C0
0701C0
0701C0
0701C0
0701C0
0701C0
0701C0
0701C0
0701C0
0701C0
0701C0
0701C0
0701C0
0701C0
0701C0
0F01C0
1E01C0
FFFFF8
FFFFF8
FFFFF8
E00038
E00038
E00038
ENDCHAR
STARTCHAR afii10022
ENCODING 229
SWIDTH 656 0
DWIDTH 21 0
BBX 17 23 3 0
BITMAP
FFFF80
FFFF80
FFFF80
E00000
E00000
E00000
E00000
E00000
E00000
FFFE00
FFFE00
FFFE00
E00000
E00000
E00000
E00000
E00000
E00000
E00000
E00000
FFFF80
FFFF80
FFFF80
ENDCHAR
STARTCHAR afii10038
ENCODING 230
SWIDTH 843 0
DWIDTH 27 0
BBX 23 24 2 0
BITMAP
003800
00FE00
07FFC0
0FFFE0
1F39F0
3C3878
78383C
70381C
70381C
E0380E
E0380E
E0380E
E0380E
E0380E
70381C
70381C
78383C
3C3878
1F39F0
0FFFE0
07FFC0
00FE00
003800
003800
ENDCHAR
STARTCHAR afii10020
ENCODING 231
SWIDTH 656 0
DWIDTH 21 0
BBX 17 23 3 0
BITMAP
FFFF80
FFFF80
FFFF80
E00000
E00000
E00000
E00000
E00000
E00000
E00000
E00000
E00000
E00000
E00000
E00000
E00000
E00000
E00000
E00000
E00000
E00000
E00000
E00000
ENDCHAR
STARTCHAR afii10039
ENCODING 232
SWIDTH 656 0
DWIDTH 21 0
BBX 20 23 1 0
BITMAP
7000E0
7801E0
3801C0
3C03C0
1E0780
0F0F00
070E00
079E00
03FC00
01F800
00F000
00F000
01F800
03FC00
039C00
079E00
0F0F00
1E0780
1C0380
3C03C0
7801E0
F000F0
E00070
ENDCHAR
STARTCHAR afii10026
ENCODING 233
SWIDTH 750 0
DWIDTH 24 0
BBX 19 23 3 0
BITMAP
E000E0
E000E0
E000E0
E000E0
E001E0
E003E0
E007E0
E00FE0
E01EE0
E03CE0
E078E0
E0F0E0
E1E0E0
E3C0E0
E780E0
EF00E0
FE00E0
FC00E0
F800E0
F000E0
E000E0
E000E0
E000E0
ENDCHAR
STARTCHAR afii10027
ENCODING 234
SWIDTH 750 0
DWIDTH 24 0
BBX 19 26 3 0
BITMAP
0F1E00
07FC00
03F800
E0E0E0
E000E0
E000E0
E000E0
E001E0
E003E0
E007E0
E00FE0
E01EE0
E03CE0
E078E0
E0F0E0
E1E0E0
E3C0E0
E780E0
EF00E0
FE00E0
FC00E0
F800E0
F000E0
E000E0
E000E0
E000E0
ENDCHAR
STARTCHAR afii10028
ENCODING 235
SWIDTH 656 0
DWIDTH 21 0
BBX 19 23 2 0
BITMAP
E00780
E00F00
E01E00
E03C00
E07800
E0F000
E1E000
E3C000
E78000
EF0000
FF0000
FF8000
FBC000
F1E000
E0F000
E07800
E03C00
E01E00
E00F00
E00780
E003C0
E001E0
E000E0
ENDCHAR
STARTCHAR afii10029
ENCODING 236
SWIDTH 656 0
DWIDTH 21 0
BBX 17 23 2 0
BITMAP
0FFF80
1FFF80
1FFF80
1C0380
1C0380
1C0380
1C0380
1C0380
1C0380
1C0380
1C0380
1C0380
1C0380
1C0380
1C0380
1C0380
1C0380
1C0380
1C0380
1C0380
1C0380
FC0380
F80380
ENDCHAR
STARTCHAR afii10030
ENCODING 237
SWIDTH 812 0
DWIDTH 26 0
BBX 21 23 3 0
BITMAP
F00078
F800F8
F800F8
F800F8
FC01F8
FC01F8
FC01F8
FE03F8
EE03B8
EE03B8
EF07B8
E70738
E70738
E78F38
E38E38
E38E38
E3DE38
E1DC38
E1DC38
E1FC38
E0F838
E0F838
E0F838
ENDCHAR
STARTCHAR afii10031
ENCODING 238
SWIDTH 718 0
DWIDTH 23 0
BBX 18 23 3 0
BITMAP
E001C0
E001C0
E001C0
E001C0
E001C0
E001C0
E001C0
E001C0
E001C0
FFFFC0
FFFFC0
FFFFC0
E001C0
E001C0
E001C0
E001C0
E001C0
E001C0
E001C0
E001C0
E001C0
E001C0
E001C0
ENDCHAR
STARTCHAR afii10032
ENCODING 239
SWIDTH 781 0
DWIDTH 25 0
BBX 22 23 2 0
BITMAP
00FC00
07FF80
0FFFC0
1F03E0
3C00F0
780078
700038
700038
E0001C
E0001C
E0001C
E0001C
E0001C
E0001C
E0001C
700038
700038
780078
3C00F0
1F03E0
0FFFC0
07FF80
00FC00
ENDCHAR
STARTCHAR afii10033
ENCODING 240
SWIDTH 718 0
DWIDTH 23 0
BBX 18 23 3 0
BITMAP
FFFFC0
FFFFC0
FFFFC0
E001C0
E001C0
E001C0
E001C0
E001C0
E001C0
E001C0
E001C0
E001C0
E001C0
E001C0
E001C0
E001C0
E001C0
E001C0
E001C0
E001C0
E001C0
E001C0
E001C0
ENDCHAR
STARTCHAR afii10049
ENCODING 241
SWIDTH 656 0
DWIDTH 21 0
BBX 17 23 2 0
BITMAP
3FFF80
7FFF80
FFFF80
E00380
E00380
E00380
E00380
E00380
E00380
F00380
FFFF80
7FFF80
3FFF80
00F380
01E380
03C380
078380
0F0380
1E0380
3C0380
780380
F00380
E00380
ENDCHAR
STARTCHAR afii10034
ENCODING 242
SWIDTH 656 0
DWIDTH 21 0
BBX 17 23 3 0
BITMAP
FFF800
FFFE00
FFFF00
E00F00
E00780
E00380
E00380
E00380
E00380
E00780
E00F00
FFFF00
FFFE00
FFF800
E00000
E00000
E00000
E00000
E00000
E00000
E00000
E00000
E00000
ENDCHAR
STARTCHAR afii10035
ENCODING 243
SWIDTH 718 0
DWIDTH 23 0
BBX 21 23 2 0
BITMAP
00FC00
07FF80
0FFFC0
1F03E0
3C00F0
780078
700038
700038
E00000
E00000
E00000
E00000
E00000
E00000
E00000
700038
700038
780078
3C00F0
1F03E0
0FFFC0
07FF80
00FC00
ENDCHAR
STARTCHAR afii10036
ENCODING 244
SWIDTH 625 0
DWIDTH 20 0
BBX 19 23 1 0
BITMAP
FFFFE0
FFFFE0
FFFFE0
00E000
00E000
00E000
00E000
00E000
00E000
00E000
00E000
00E000
00E000
00E000
00E000
00E000
00E000
00E000
00E000
00E000
00E000
00E000
00E000
ENDCHAR
STARTCHAR afii10037
ENCODING 245
SWIDTH 687 0
DWIDTH 22 0
BBX 21 23 1 0
BITMAP
E00038
F00078
7800F0
3C01E0
1C01C0
1E03C0
0F0780
078F00
038E00
03DE00
01FC00
00F800
00F000
00E000
01E000
01C000
03C000
038000
070000
0F0000
1E0000
7C0000
780000
ENDCHAR
STARTCHAR afii10024
ENCODING 246
SWIDTH 968 0
DWIDTH 31 0
BBX 31 23 0 0
BITMAP
38038038
3C038078
1E0380F0
0F0381E0
078383C0
03C38780
01E38F00
00F39E00
007BBC00
003FF800
001FF000
003FF800
007BBC00
00F39E00
01E38F00
03C38780
078383C0
0F0381E0
1E0380F0
3C038078
7803803C
F003801E
E003800E
ENDCHAR
STARTCHAR afii10019
ENCODING 247
SWIDTH 656 0
DWIDTH 21 0
BBX 17 23 3 0
BITMAP
FFF000
FFFC00
FFFE00
E00E00
E00700
E00700
E00700
E00700
E00E00
FFFE00
FFFC00
FFFE00
E00F00
E00700
E00380
E00380
E00380
E00380
E00780
E00F00
FFFF00
FFFE00
FFF800
ENDCHAR
STARTCHAR afii10046
ENCODING 248
SWIDTH 718 0
DWIDTH 23 0
BBX 18 23 3 0
BITMAP
E00000
E00000
E00000
E00000
E00000
E00000
E00000
E00000
E00000
E00000
FFFF00
FFFF80
FFFFC0
E003C0
E001C0
E001C0
E001C0
E001C0
E001C0
E003C0
FFFFC0
FFFF80
FFFF00
ENDCHAR
STARTCHAR afii10045
ENCODING 249
SWIDTH 812 0
DWIDTH 26 0
BBX 22 23 2 0
BITMAP
E0001C
E0001C
E0001C
E0001C
E0001C
E0001C
E0001C
E0001C
E0001C
E0001C
FFFF1C
FFFF9C
FFFFDC
E003DC
E001DC
E001DC
E001DC
E001DC
E001DC
E003DC
FFFFDC
FFFF9C
FFFF1C
ENDCHAR
STARTCHAR afii10025
ENCODING 250
SWIDTH 593 0
DWIDTH 19 0
BBX 17 23 1 0
BITMAP
0FFC00
3FFE00
7FFF00
700F00
000700
000700
000700
000700
000700
000E00
07FC00
07FE00
07FF00
000F80
000380
000380
000380
000380
E00380
F00780
7FFF00
7FFE00
1FFC00
ENDCHAR
STARTCHAR afii10042
ENCODING 251
SWIDTH 906 0
DWIDTH 29 0
BBX 27 23 1 0
BITMAP
E00E00E0
E00E00E0
E00E00E0
E00E00E0
E00E00E0
E00E00E0
E00E00E0
E00E00E0
E00E00E0
E00E00E0
E00E00E0
E00E00E0
E00E00E0
E00E00E0
E00E00E0
E00E00E0
E00E00E0
E00E00E0
E00E00E0
E00E00E0
FFFFFFE0
FFFFFFE0
FFFFFFE0
ENDCHAR
STARTCHAR afii10047
ENCODING 252
SWIDTH 750 0
DWIDTH 24 0
BBX 20 23 2 0
BITMAP
03F000
1FFE00
3FFF00
7C0F80
F003C0
E001E0
0000E0
0000E0
000070
000070
00FFF0
00FFF0
00FFF0
000070
000070
0000E0
0000E0
E001E0
F003C0
7C0F80
3FFF00
1FFE00
03F000
ENDCHAR
STARTCHAR afii10043
ENCODING 253
SWIDTH 968 0
DWIDTH 31 0
BBX 29 26 1 -3
BITMAP
E00E00E0
E00E00E0
E00E00E0
E00E00E0
E00E00E0
E00E00E0
E00E00E0
E00E00E0
E00E00E0
E00E00E0
E00E00E0
E00E00E0
E00E00E0
E00E00E0
E00E00E0
E00E00E0
E00E00E0
E00E00E0
E00E00E0
E00E00E0
FFFFFFF8
FFFFFFF8
FFFFFFF8
00000038
00000038
00000038
ENDCHAR
STARTCHAR afii10041
ENCODING 254
SWIDTH 718 0
DWIDTH 23 0
BBX 18 23 3 0
BITMAP
E001C0
E001C0
E001C0
E001C0
E001C0
E001C0
E001C0
E001C0
F001C0
FFFFC0
7FFFC0
3FFFC0
0001C0
0001C0
0001C0
0001C0
0001C0
0001C0
0001C0
0001C0
0001C0
0001C0
0001C0
ENDCHAR
STARTCHAR afii10044
ENCODING 255
SWIDTH 750 0
DWIDTH 24 0
BBX 22 23 1 0
BITMAP
FE0000
FE0000
FE0000
0E0000
0E0000
0E0000
0E0000
0E0000
0E0000
0E0000
0FFFF0
0FFFF8
0FFFFC
0E003C
0E001C
0E001C
0E001C
0E001C
0E001C
0E003C
0FFFFC
0FFFF8
0FFFF0
ENDCHAR
ENDFONT
